<svg version="1.1" id="Layer_1" xmlns="http://www.w3.org/2000/svg" xmlns:xlink="http://www.w3.org/1999/xlink" x="0px" y="0px"
	 width="100%" viewBox="0 0 1000 1000" enable-background="new 0 0 1000 1000" xml:space="preserve">
<path fill="#3460A9" opacity="1.000000" stroke="none" 
	d="
M658.000000,1001.000000 
	C438.666656,1001.000000 219.833328,1001.000000 1.000000,1001.000000 
	C1.000000,667.666687 1.000000,334.333344 1.000000,1.000000 
	C334.333344,1.000000 667.666687,1.000000 1001.000000,1.000000 
	C1001.000000,334.333344 1001.000000,667.666687 1001.000000,1001.000000 
	C886.833313,1001.000000 772.666687,1001.000000 658.000000,1001.000000 
M690.958008,282.514709 
	C690.619873,282.401947 690.281799,282.289154 689.339233,281.868774 
	C678.136658,270.115540 666.934021,258.362305 656.733154,247.660019 
	C646.132202,257.631836 635.856323,267.297974 624.586609,276.882294 
	C617.628906,277.423584 610.626343,277.630951 603.720825,278.560242 
	C558.447205,284.652710 520.463684,304.943726 488.687439,337.196747 
	C486.118683,326.041687 483.549927,314.886597 480.990540,303.772339 
	C444.142883,303.772339 407.722931,303.772339 371.041321,303.772339 
	C347.634277,400.080261 324.275391,496.189972 300.916534,592.299683 
	C300.644073,592.278564 300.371613,592.257446 300.099152,592.236389 
	C281.322357,496.094360 262.545563,399.952332 243.779144,303.863403 
	C210.637115,303.863403 177.907501,303.863403 144.841431,303.863403 
	C145.060074,305.547943 145.133041,306.855713 145.407883,308.119598 
	C154.881485,351.686646 164.403275,395.243225 173.858231,438.814301 
	C195.167023,537.010864 216.481476,635.206238 237.607635,733.442139 
	C238.524414,737.705139 240.123520,738.644592 244.141891,738.582275 
	C275.287659,738.099243 306.436432,737.717346 337.585205,737.629272 
	C342.087738,737.616516 343.837097,736.327820 344.998871,732.029114 
	C369.298157,642.119141 393.745483,552.249268 418.179596,462.375732 
	C419.981506,455.747925 421.903442,449.152740 423.769562,442.542389 
	C424.073547,442.602234 424.377502,442.662048 424.681488,442.721893 
	C427.043701,452.065094 429.405884,461.408264 431.500031,471.475647 
	C430.878204,478.761200 430.067322,486.036346 429.665802,493.334015 
	C427.370026,535.060181 430.891785,576.094604 445.098358,615.720154 
	C454.449249,641.801941 467.669708,665.661011 487.157196,686.649780 
	C491.446014,703.233093 495.934509,719.768982 499.897400,736.429810 
	C501.030975,741.195618 502.906158,742.649292 507.823578,742.626282 
	C538.649414,742.482239 569.476929,742.711853 601.129089,743.172791 
	C642.170593,749.171814 682.878601,748.307251 722.706421,735.783936 
	C750.625793,727.005127 775.717041,713.332825 794.523926,689.997925 
	C817.179260,661.888184 832.416687,629.822998 844.710205,596.180298 
	C844.969543,595.470520 844.813965,594.609070 844.883789,593.156738 
	C842.478760,593.156738 840.362366,593.159424 838.246033,593.156372 
	C802.763794,593.104919 767.280518,593.181152 731.800537,592.869385 
	C726.156006,592.819824 723.570312,594.140747 721.750916,599.925903 
	C716.225098,617.496216 707.845886,633.554077 692.201172,644.472412 
	C671.926880,658.621826 649.424866,659.577515 626.088623,654.242065 
	C628.923584,644.525940 631.784912,634.817444 634.588440,625.092285 
	C642.171936,598.785339 649.730835,572.471313 658.192566,546.074890 
	C721.631958,546.074890 785.071350,546.074890 849.156128,546.074890 
	C849.156128,539.066528 849.220581,532.780640 849.145630,526.496460 
	C848.668213,486.478882 844.349976,447.020142 831.079468,408.996918 
	C810.293396,349.439972 770.834045,308.240234 710.702209,287.737183 
	C704.324402,285.562592 697.552124,284.544647 691.028076,282.996490 
	C691.028076,282.996490 691.015991,283.061157 690.958008,282.514709 
z"/>
<path fill="#FFFFFF" opacity="1.000000" stroke="none" 
	d="
M657.299561,546.160034 
	C649.730835,572.471313 642.171936,598.785339 634.588440,625.092285 
	C631.784912,634.817444 628.923584,644.525940 625.923218,654.962280 
	C617.273193,684.727600 608.788574,713.772705 600.303894,742.817871 
	C569.476929,742.711853 538.649414,742.482239 507.823578,742.626282 
	C502.906158,742.649292 501.030975,741.195618 499.897400,736.429810 
	C495.934509,719.768982 491.446014,703.233093 487.020386,685.900513 
	C483.544800,672.111145 480.218170,659.067932 476.865051,646.031494 
	C461.836853,587.603699 446.801086,529.177979 431.768066,470.751465 
	C429.405884,461.408264 427.043701,452.065094 424.681488,442.721893 
	C424.377502,442.662048 424.073547,442.602234 423.769562,442.542389 
	C421.903442,449.152740 419.981506,455.747925 418.179596,462.375732 
	C393.745483,552.249268 369.298157,642.119141 344.998871,732.029114 
	C343.837097,736.327820 342.087738,737.616516 337.585205,737.629272 
	C306.436432,737.717346 275.287659,738.099243 244.141891,738.582275 
	C240.123520,738.644592 238.524414,737.705139 237.607635,733.442139 
	C216.481476,635.206238 195.167023,537.010864 173.858231,438.814301 
	C164.403275,395.243225 154.881485,351.686646 145.407883,308.119598 
	C145.133041,306.855713 145.060074,305.547943 144.841431,303.863403 
	C177.907501,303.863403 210.637115,303.863403 243.779144,303.863403 
	C262.545563,399.952332 281.322357,496.094360 300.099152,592.236389 
	C300.371613,592.257446 300.644073,592.278564 300.916534,592.299683 
	C324.275391,496.189972 347.634277,400.080261 371.041321,303.772339 
	C407.722931,303.772339 444.142883,303.772339 480.990540,303.772339 
	C483.549927,314.886597 486.118683,326.041687 488.839203,337.944519 
	C489.024841,339.023529 489.025085,339.362244 489.097321,339.684845 
	C507.128448,420.194733 525.160034,500.704498 543.209229,581.210327 
	C544.638000,587.583191 546.189209,593.928589 547.683594,600.286743 
	C548.043640,600.258423 548.403748,600.230042 548.763794,600.201660 
	C550.807739,592.345642 552.851685,584.489563 555.036133,576.314209 
	C557.877625,566.035583 560.578552,556.076233 563.725342,546.040283 
	C595.213928,546.029114 626.256775,546.094604 657.299561,546.160034 
z"/>
<path fill="#8DBF44" opacity="1.000000" stroke="none" 
	d="
M657.746094,546.117432 
	C626.256775,546.094604 595.213928,546.029114 563.248291,545.991760 
	C559.676086,546.011536 556.966370,545.671875 554.403809,546.139160 
	C553.183289,546.361694 551.231873,548.227661 551.332092,549.165466 
	C552.312134,558.343689 553.655579,567.483032 554.895630,576.633484 
	C552.851685,584.489563 550.807739,592.345642 548.763794,600.201660 
	C548.403748,600.230042 548.043640,600.258423 547.683594,600.286743 
	C546.189209,593.928589 544.638000,587.583191 543.209229,581.210327 
	C525.160034,500.704498 507.128448,420.194733 489.097321,339.684845 
	C489.025085,339.362244 489.024841,339.023529 489.015015,338.279968 
	C520.463684,304.943726 558.447205,284.652710 603.720825,278.560242 
	C610.626343,277.630951 617.628906,277.423584 624.884399,277.231445 
	C608.528748,294.897034 591.875366,312.213531 574.170776,330.623077 
	C583.793823,330.623077 592.001038,330.623077 600.847412,330.623077 
	C597.759888,348.948669 594.809814,366.458771 591.550415,384.089722 
	C589.429443,385.660767 587.546509,387.031067 585.816711,388.573242 
	C561.710632,410.064453 554.093323,438.245392 553.131714,469.140869 
	C553.043457,471.976318 554.229309,472.939850 556.961243,472.880920 
	C563.763977,472.734192 570.570312,472.758026 577.874023,472.816040 
	C594.158447,472.946320 609.944153,473.019623 625.729736,472.988434 
	C640.842834,472.958557 655.955688,472.820190 671.530884,472.769043 
	C689.960632,472.821625 707.929321,472.727936 725.894714,472.929840 
	C729.919922,472.975037 731.292175,471.695831 730.789978,467.766144 
	C730.052490,461.996429 729.785583,456.161865 728.929382,450.412842 
	C724.686646,421.927399 713.113464,397.682800 688.410522,380.724670 
	C691.275452,365.256287 694.259888,350.257599 696.851746,335.191376 
	C697.513855,331.342194 699.125061,330.365082 702.751099,330.452728 
	C711.732666,330.669739 720.723022,330.539276 729.709717,330.503906 
	C731.055603,330.498596 732.400513,330.253326 734.676453,330.026184 
	C728.706604,323.709045 723.426392,318.210175 718.245117,312.619598 
	C709.119202,302.772614 700.053711,292.869598 690.962891,282.990082 
	C697.552124,284.544647 704.324402,285.562592 710.702209,287.737183 
	C770.834045,308.240234 810.293396,349.439972 831.079468,408.996918 
	C844.349976,447.020142 848.668213,486.478882 849.145630,526.496460 
	C849.220581,532.780640 849.156128,539.066528 849.156128,546.074890 
	C785.071350,546.074890 721.631958,546.074890 657.746094,546.117432 
z"/>
<path fill="#8DBF44" opacity="1.000000" stroke="none" 
	d="
M600.716492,742.995361 
	C608.788574,713.772705 617.273193,684.727600 625.930054,655.347412 
	C649.424866,659.577515 671.926880,658.621826 692.201172,644.472412 
	C707.845886,633.554077 716.225098,617.496216 721.750916,599.925903 
	C723.570312,594.140747 726.156006,592.819824 731.800537,592.869385 
	C767.280518,593.181152 802.763794,593.104919 838.246033,593.156372 
	C840.362366,593.159424 842.478760,593.156738 844.883789,593.156738 
	C844.813965,594.609070 844.969543,595.470520 844.710205,596.180298 
	C832.416687,629.822998 817.179260,661.888184 794.523926,689.997925 
	C775.717041,713.332825 750.625793,727.005127 722.706421,735.783936 
	C682.878601,748.307251 642.170593,749.171814 600.716492,742.995361 
z"/>
<path fill="#FEFFFE" opacity="1.000000" stroke="none" 
	d="
M591.859680,383.968842 
	C594.809814,366.458771 597.759888,348.948669 600.847412,330.623077 
	C592.001038,330.623077 583.793823,330.623077 574.170776,330.623077 
	C591.875366,312.213531 608.528748,294.897034 625.381287,277.272339 
	C635.856323,267.297974 646.132202,257.631836 656.733154,247.660019 
	C666.934021,258.362305 678.136658,270.115540 689.727783,282.269196 
	C690.416260,282.800140 690.716125,282.930634 691.015991,283.061157 
	C691.015991,283.061157 691.028076,282.996490 690.995483,282.993286 
	C700.053711,292.869598 709.119202,302.772614 718.245117,312.619598 
	C723.426392,318.210175 728.706604,323.709045 734.676453,330.026184 
	C732.400513,330.253326 731.055603,330.498596 729.709717,330.503906 
	C720.723022,330.539276 711.732666,330.669739 702.751099,330.452728 
	C699.125061,330.365082 697.513855,331.342194 696.851746,335.191376 
	C694.259888,350.257599 691.275452,365.256287 688.289307,381.046387 
	C682.450623,412.118317 676.759644,442.423920 671.068665,472.729523 
	C655.955688,472.820190 640.842834,472.958557 625.729736,472.988434 
	C609.944153,473.019623 594.158447,472.946320 578.002441,472.419434 
	C578.599548,466.025940 579.580200,460.133911 580.531982,454.237213 
	C584.312805,430.815216 588.084595,407.391754 591.859680,383.968842 
z"/>
<path fill="#8DBF46" opacity="1.000000" stroke="none" 
	d="
M431.634033,471.113556 
	C446.801086,529.177979 461.836853,587.603699 476.865051,646.031494 
	C480.218170,659.067932 483.544800,672.111145 486.878967,685.534668 
	C467.669708,665.661011 454.449249,641.801941 445.098358,615.720154 
	C430.891785,576.094604 427.370026,535.060181 429.665802,493.334015 
	C430.067322,486.036346 430.878204,478.761200 431.634033,471.113556 
z"/>
<path fill="#8DBF44" opacity="1.000000" stroke="none" 
	d="
M690.987000,282.787933 
	C690.716125,282.930634 690.416260,282.800140 690.030029,282.423004 
	C690.281799,282.289154 690.619873,282.401947 690.987000,282.787933 
z"/>
<path fill="#3966A8" opacity="1.000000" stroke="none" 
	d="
M555.036133,576.314209 
	C553.655579,567.483032 552.312134,558.343689 551.332092,549.165466 
	C551.231873,548.227661 553.183289,546.361694 554.403809,546.139160 
	C556.966370,545.671875 559.676086,546.011536 562.802490,546.068420 
	C560.578552,556.076233 557.877625,566.035583 555.036133,576.314209 
z"/>
<path fill="#3561A9" opacity="1.000000" stroke="none" 
	d="
M671.530884,472.769043 
	C676.759644,442.423920 682.450623,412.118317 688.262817,381.490997 
	C713.113464,397.682800 724.686646,421.927399 728.929382,450.412842 
	C729.785583,456.161865 730.052490,461.996429 730.789978,467.766144 
	C731.292175,471.695831 729.919922,472.975037 725.894714,472.929840 
	C707.929321,472.727936 689.960632,472.821625 671.530884,472.769043 
z"/>
<path fill="#3662A9" opacity="1.000000" stroke="none" 
	d="
M591.550415,384.089722 
	C588.084595,407.391754 584.312805,430.815216 580.531982,454.237213 
	C579.580200,460.133911 578.599548,466.025940 577.503662,472.316772 
	C570.570312,472.758026 563.763977,472.734192 556.961243,472.880920 
	C554.229309,472.939850 553.043457,471.976318 553.131714,469.140869 
	C554.093323,438.245392 561.710632,410.064453 585.816711,388.573242 
	C587.546509,387.031067 589.429443,385.660767 591.550415,384.089722 
z"/>
</svg>